<svg width="24" height="24" viewBox="0 0 24 24" fill="none" xmlns="http://www.w3.org/2000/svg">
<g id="Loading">
<path id="Ellipse 4" d="M12 21C12 21.5523 12.4488 22.0052 12.9984 21.9501C15.2808 21.7211 17.4269 20.7123 19.0647 19.0774C20.9396 17.2059 21.9952 14.667 22 12.0179C22.0047 9.36883 20.9582 6.82613 19.09 4.94793C17.2219 3.06974 14.6848 2.00954 12.0358 2.00006C9.38673 1.99058 6.84216 3.0326 4.96063 4.89738C3.0791 6.76215 2.01436 9.2973 2.00014 11.9463C1.98593 14.5954 3.02339 17.1418 4.88479 19.0267C6.51088 20.6732 8.64967 21.6974 10.9304 21.9427C11.4796 22.0017 11.9316 21.552 11.9356 20.9998V20.9998C11.9395 20.4475 11.4933 20.003 10.9458 19.9303C9.19585 19.6977 7.5614 18.8907 6.30783 17.6213C4.81871 16.1134 3.98874 14.0763 4.00011 11.9571C4.01149 9.83784 4.86328 7.80972 6.3685 6.3179C7.87373 4.82608 9.90939 3.99247 12.0286 4.00005C14.1479 4.00763 16.1775 4.85579 17.672 6.35835C19.1665 7.8609 20.0038 9.89506 20 12.0143C19.9962 14.1336 19.1517 16.1647 17.6518 17.6619C16.3892 18.9223 14.749 19.7175 12.9974 19.9376C12.4495 20.0065 12 20.4477 12 21V21Z" fill="url(#paint0_angular_4_70)"/>
</g>
<defs>
<radialGradient id="paint0_angular_4_70" cx="1.4" cy="0" r="2" gradientUnits="userSpaceOnUse" gradientTransform="translate(12 12) rotate(90) scale(5.83333)">
<stop stop-color="white" stop-opacity="1"/>
<stop offset="1" stop-color="#512DE4"/>
</radialGradient>
</defs>
</svg>
