 <svg width="24" height="24" viewBox="0 0 24 24" fill="none" xmlns="http://www.w3.org/2000/svg">
<g id="Loading">
<path id="Ellipse 4" d="M21 12C18.5523 8 18.0052 10.5512 21.9501 10.0016C21.7211 8.71915 20.7123
6.57309 19.0774 4.93526C17.2059 3.06041 14.667 2.00476 12.0179 2.00002C9.36883 1.99528 6.82613
3.04184 4.94793 4.90998C3.06974 6.77812 2.00954 9.31517 2.00006 11.9642C1.99059 14.6133 3.0326
17.1578 4.89738 19.0394C6.76215 20.9209 9.2973 21.9856 11.9463 21.9999C14.5954 22.0141 17.1418
20.9766 19.0267 19.1152C20.6732 17.4891 21.6974 15.3503 21.9427 13.0695C22.0017 12.5204 21.552
12.0684 20.9998 12.0644C20.4475 12.0605 20.003 12.5067 19.9303 13.0542C19.6977 14.8042 18.8907
16.4386 17.6213 17.6922C16.1134 19.1813 14.0763 20.0113 11.9571 19.9999C9.83784 19.9885 7.80972
19.1367 6.3179 17.6315C4.82608 16.1263 3.99247 14.0906 4.00005 11.9714C4.00763 9.85214 4.85579
 7.8225 6.35835 6.32799C7.8609 4.83347 9.89506 3.99622 12.0143 4.00001C14.1336 4.0038 16.1647
 4.84833 17.6619 6.34821C18.9223 7.61083 19.7175 9.25101 19.9376 11.0026C20.0065 11.5505
 20.4477 12 21 12Z" fill="url(#paint0_angular_4_66)"/>
</g>
<defs>
<radialGradient id="paint0_angular_4_66" cx="1" cy="0" r="2" gradientUnits="userSpaceOnUse"
                gradientTransform="translate(16 12) scale(8.83333)">
<stop stop-color="white" stop-opacity="1"/>
<stop offset="1" stop-color="#512DE4"/>
</radialGradient>
</defs>
</svg>
